<?xml version="1.0" encoding="utf-8"?>
<!-- Generator: Adobe Illustrator 24.0.2, SVG Export Plug-In . SVG Version: 6.00 Build 0)  -->
<svg version="1.1" id="레이어_1" xmlns="http://www.w3.org/2000/svg" xmlns:xlink="http://www.w3.org/1999/xlink" x="0px"
	 y="0px" viewBox="0 0 3000 760" style="enable-background:new 0 0 3000 760;" xml:space="preserve">
<style type="text/css">
	.st0{stroke:#000000;stroke-miterlimit:10;}
	.st1{fill:#534398;}
</style>
<path class="st0" d="M1189,98.4c27.5-0.5,53,0.6,74.4,6c2.8,0.2,5.7,0.3,8.5,0.5c6.6,1.6,15.5,3.8,21.6,6c2.5,0.3,5,0.7,7.5,1
	c12.9,4,27.5,9,38.2,15.6c2.8,1.8,5.6,2.5,8,4.5c7.9,6.5,16.1,25.7,11.1,41.7c-0.4,1.1-3.2,7.3-4,8.5c-4.9,7.5-18.4,20-33.7,16.6
	c-10.4-2.3-18.5-4.9-28.7-8c-5.5-1.7-13.3-4.5-19.1-6c-2.3-0.2-4.7-0.3-7-0.5c-34-8.4-95.8-12.6-114.1,12.1c-1.4,1.9-3.8,4-5,6
	c-2.7,4.4-5.6,23.5-3.5,31.2c8.2,30.5,29.9,39,56.8,50.3c1.3,0.2,2.7,0.3,4,0.5c1.4,0.5,2.9,2,4,2.5c2.3,0.5,4.7,1,7,1.5
	c9.4,4.1,20.6,8.1,30.2,12.1c5,2.1,9.7,2.4,14.6,4.5c19.9,8.7,40.1,18,57.3,29.7c26,17.6,47.8,42.9,57.8,76.4c0.3,2.7,0.7,5.4,1,8
	c0.7,2.2,1.9,5.4,2.5,8c0.3,4.5,0.7,9,1,13.6c2.7,12,2.2,31.3-0.5,42.7c-0.3,4.2-0.7,8.4-1,12.6c-4.3,14.5-8.9,29.4-16.6,40.7
	c-17,25.2-42.7,41.3-73.4,52.8c-14.1,5.3-31.3,6.4-46.7,10.1c-9.1,2.1-19.7-1-29.2,1c-5.4,1.1-15.7,1.2-21.1,0c-4.4,0-8.7,0-13.1,0
	c-4-0.9-9.2,0-13.6-1c-3.4-0.8-7.6-1.7-11.1-2.5c-3.2-0.2-6.4-0.3-9.6-0.5c-26.6-6.4-55.5-12.1-75.9-25.1c-1.8-0.7-3.7-1.3-5.5-2
	c-6.9-4.4-14.2-9.2-18.6-16.1c-3.2-5-4-11.8-5.5-18.6c-0.9-4,0.5-12.8,1.5-16.1c3.5-11.7,20.6-28.7,38.7-23.6
	c10.7,3,20.9,6.5,30.2,11.1c2.3,1.2,4.9,0.5,7.5,1.5c4.4,1.6,11.1,4,15.6,5.5c3,0.3,6,0.7,9,1c8.8,2.3,20.5,3.9,30.2,6
	c7.4,0.2,14.7,0.3,22.1,0.5c11.7,2.5,28.3-0.3,37.2-3c2.5-0.3,5-0.7,7.5-1c1.2-0.5,2.8-2.1,4-2.5c1.8-0.3,3.7-0.7,5.5-1
	c14.7-7.8,29.6-18.5,34.7-35.7c0.2-2.3,0.3-4.7,0.5-7c4.7-21.2-4.9-40.8-13.6-52.3c-6.5-8.7-26-19.3-37.2-23.6
	c-1.8-0.3-3.7-0.7-5.5-1c-1.3-0.5-2.6-2-4-2.5c-1.8-0.3-3.7-0.7-5.5-1c-9.2-4.5-20.6-8.1-30.2-12.1c-1.8-0.3-3.7-0.7-5.5-1
	c-25.1-10.4-51.8-19.1-73.4-33.2c-23.5-15.2-44.3-37.3-54.3-65.8c-3.1-8.8-4.5-19.4-6.5-28.7c0-2,0-4,0-6
	c-1.3-5.9-1.8-18.8-0.5-24.6c0-3.7,0-7.4,0-11.1c1.5-6.6,1.9-13,4-19.6c7.3-22.2,22.3-44.2,39.7-56.3c16-11.1,34.6-19.8,55.3-26.1
	c9.9-3,20.3-3.1,30.7-5.5C1179.5,99.1,1186.5,100,1189,98.4z"/>
<path class="st0" d="M36.5,104.4c15.1,0,30.2,0,45.2,0c6.4,0,15.7-1,20.1,1.5c8.7,5,10.4,14.4,15.1,23.6
	c8.3,16.4,15.4,33.4,23.1,50.8c0.5,1,2,2.1,2.5,3c0.3,1.5,0.7,3,1,4.5c1.5,3.4,4.7,7.6,6,11.1c3,7.7,6.1,14.3,9.6,21.1
	c0.3,1.5,0.7,3,1,4.5c0.5,0.9,2.1,2,2.5,3c6.6,14.9,12.5,29.4,19.6,43.2c0.3,1.5,0.7,3,1,4.5c1.5,3.4,4.7,7.7,6,11.1
	c0.2,1.2,0.3,2.3,0.5,3.5c0.5,1,2,2.1,2.5,3c0.3,1.5,0.7,3,1,4.5c1.4,3,4.2,7,5.5,10.1c0.5,1.8,1,3.7,1.5,5.5c0.4,0.7,1.6,1.2,2,2
	c6.7,14.8,12.5,29.2,19.6,43.2c0.3,1.5,0.7,3,1,4.5c1.5,3.4,4.5,7.6,6,11.1c0.2,1.2,0.3,2.3,0.5,3.5c0.6,1.4,2.5,2.6,3,4
	c4.2,10.2,8.4,19.5,13.1,28.7c0.3,1.7,0.7,3.4,1,5c2.7,5.5,5.5,12.7,8.5,18.1c0.5,2,1,4,1.5,6c1.4,3.2,4.2,7.9,5.5,11.1
	c1.3,3-0.3,5.4,3.5,6c7.2-11.7,11.4-25.9,17.1-39.2c1.3-3.1,4-7.1,5.5-10.1c2.2-4.2,2.7-7.8,4.5-12.1c4.2-9.6,9-18.8,13.1-29.2
	c0.6-1.5,2.4-3,3-4.5c3.6-8.3,6.7-15.6,10.1-24.1c0.6-1.5,2.4-3.1,3-4.5c7.7-17.3,14.8-34.4,23.1-50.8c0.3-1.7,0.7-3.4,1-5
	c3.3-6.5,6.4-13.4,9.6-20.6c0.6-1.5,2.4-3.1,3-4.5c0.2-1.2,0.3-2.3,0.5-3.5c1.5-3.3,4.5-7.6,6-11.1c0.3-1.5,0.7-3,1-4.5
	c5.2-10.1,11-21.6,15.6-32.2c7-16.3,13.4-31.4,20.6-47.8c0.5-1,2-2.1,2.5-3c0.2-1.2,0.3-2.3,0.5-3.5c1.4-3.4,4.5-7.7,6-11.1
	c3.5-7.9,8-22,14.1-26.6c9.2-7,39.7-4,55.8-4c5.4,0,15.2-0.8,19.1,1c13.7,6.3,12.6,20.1,12.6,39.7c0,24.6,0,49.3,0,73.9
	c0,81.6,0,163.2,0,244.8c0,46.6,2.6,92.6-18.1,118.6c-9.2,11.6-24.8,12.6-45.7,12.6c-14.3,0-25.9-0.3-30.7-9.6
	c-5.6-10.8-3-43.7-3-60.3c0-44.4,0-88.8,0-133.2c0-12.7,0-25.5,0-38.2c0-7.2,1.1-13.8-1-19.1c-0.9,0.3-0.5,0.1-1,0.5
	c-2.6,3.1-3.4,11.8-5,16.1c-3.5,9.1-8.7,18.9-12.6,27.6c-1.9,4.4-2.3,8.8-4.5,13.1c-11,21.4-20.2,44.4-29.2,67.4
	c-1.4,3.5-4.3,8.2-6,11.6c-0.2,1.2-0.3,2.3-0.5,3.5c-0.6,1.5-2.4,3.1-3,4.5c-0.3,1.7-0.7,3.4-1,5c-1.5,3-4.1,7.1-5.5,10.1
	c-0.3,1.7-0.7,3.4-1,5c-1.5,3.5-4.7,8-6,11.6c-1.7,4.3-2.1,7.3-4,11.6c-0.5,1.1-2,2.3-2.5,3.5c-8.8,22.7-19.7,57.2-40.2,67.4
	c-3.2,1.6-7.2,0.6-11.1,1.5c-4.3,1-10.9,0.5-16.1,0.5c-10.6,0-24.5,1.6-32.7-1.5c-1.6-0.6-3.6-2.4-5-3.5
	c-4.7-3.7-8.8-18.1-11.6-24.6c-2.5-5.9-6.1-12.9-9-18.6c-2.2-4.3-2.6-8.6-4.5-13.1c-0.5-1-2.1-2.1-2.5-3c-0.2-1.2-0.3-2.3-0.5-3.5
	c-0.7-1.7-2.4-3.4-3-5c-0.2-1.2-0.3-2.3-0.5-3.5c-18.4-41.8-37.4-84.9-55.8-126.7c-0.3-1.7-0.7-3.4-1-5
	c-5.5-10.8-10.8-23.2-15.6-34.7c-3.3-7.9-4.7-15.8-8.5-22.6c-0.2,0-0.3,0-0.5,0c0,0.3,0,0.7,0,1c-1.3,2.2,0,13.5,0,17.6
	c0,16.1,0,32.2,0,48.3c0,24.8,0,49.6,0,74.4c0,11.6,1.8,26.1-0.5,36.7c0,2.7,0,5.4,0,8c-0.3,7.5-0.7,15.1-1,22.6
	c-5,22.4-7.2,38.1-23.6,49.3c-2.4,1.6-5.7,4.4-8.5,5.5c-8.3,3.2-20.8,2-31.7,2c-4.4,0-8.7,0-13.1,0c-4.4-1-8.5-2.2-11.6-4.5
	c-8.7-6.5-8-19.9-8-35.2c0-25.5,0-50.9,0-76.4c0-90.8,0-181.6,0-272.4c0-20.6,0-41.2,0-61.8c0-12.2-0.8-24.3,4-31.7
	c2-3.1,7.3-7,11.1-8C33.2,104.4,35.2,105.2,36.5,104.4z"/>
<path class="st0" d="M613,104.4c14.9,0,29.8,0,44.7,0c13.3,0,24.4,0.1,29.7,8c4.7,7.1,3.5,20.4,3.5,32.2c0,23.1,0,46.2,0,69.4
	c0,45.2,0,90.5,0,135.7c0,80.3,0.3,144.8,59.3,166.9c1.7,0.2,3.4,0.3,5,0.5c8.7,2.3,23.7,6,35.2,3.5c6.7-1.4,13.1,0.6,19.1-1
	c20.2-5.4,35.5-13.8,46.2-28.7c1.2-1.6,3.5-3.3,4.5-5c7.1-12.3,11.7-26.4,16.1-41.7c0.2-2.5,0.3-5,0.5-7.5c1.2-5.5,1.8-11.7,3-17.1
	c0.2-7.2,0.3-14.4,0.5-21.6c0-13.7,0-27.5,0-41.2c0-42.9,0-85.8,0-128.7c0-27.3,0-54.6,0-81.9c0-15.5-0.8-29.7,7-37.2
	c8-7.6,32.3-4.5,47.2-4.5c9,0,20.5-1.6,28.7,0.5c15.6,4.1,14.6,21.3,14.6,41.2c0,32.8,0,65.7,0,98.5c0,41.5,0,83.1,0,124.7
	c0,37.7,0.1,74.5-8,104.6c-12,44.4-37,82-72.9,102.5c-1.5,0.5-3,1-4.5,1.5c-10.6,6.8-25.3,12-38.7,15.6c-8.5,2.3-17.7,2.7-26.1,5
	c-6.3,1.7-14.7,1.9-21.6,2c-3.7,0-7.4,0-11.1,0c-4.8,1-13.8,1-18.6,0c-4.7,0-9.4,0-14.1,0c-3.7-0.8-8.4-0.1-12.6-1
	c-3.4-0.8-7.4-1.8-10.6-2.5c-3.7-0.3-7.4-0.7-11.1-1c-18.9-5.5-38-10.4-53.3-19.6c-37.9-22.7-58-55.8-72.9-101.5c-0.3-3-0.7-6-1-9
	c-2.2-8.4-3.5-19.5-5.5-28.7c-2.3-10.1,0.7-21.1-1-32.2c-2.3-15-0.5-33.3-0.5-49.3c0-58.1,0-116.3,0-174.4c0-14.2,0-28.5,0-42.7
	c0-7.1-1.1-15.8,1-21.6c1.6-4.5,7.2-9.7,11.6-11.6C608.2,104.7,611.5,105.4,613,104.4z"/>
<path class="st1" d="M1836.9,111.5c26.6,0,53.3,0,79.9,0c13.1,0,28.5-1.3,36.7,3.5c3.9,2.3,11.7,15,9.6,23.1
	c-2.2,8.2-6,15.9-13.1,19.1c-5.8,2.6-17.1,1-24.6,1c-18.8,0-37.5,0-56.3,0c-10.4,0-33.3,2.1-39.7-2c-10.8-6.9-15.3-23.9-6.5-36.7
	c1.7-2.5,7.2-6.5,10.1-7.5C1834.4,111.5,1836,112.1,1836.9,111.5z"/>
<path class="st0" d="M2242.6,113c15.9,0,31.8,0,47.8,0c11.3,0,20.9,0.1,25.6,6.5c6.1,8.3,5,23.7,5,38.2c0,27,0,54,0,80.9
	c0,83.1,0,166.2,0,249.3c0,41.9,0.5,79.6-18.1,103c-2.4,3-11.7,9.1-15.6,10.6c-3.4,1.3-8.2,1.3-11.6,2c-4.9,0-9.7,0-14.6,0
	c-15.1,0-28.8,0.5-34.2-9c-4.2-7.6-3-21.4-3-33.2c0-23.3,0-46.6,0-69.9c0-86.6,0-173.3,0-259.9c0-25.5,0-50.9,0-76.4
	c0-12.2-1.4-26.7,3.5-34.2c1.5-2.3,6.4-6,9-7C2238.4,113.3,2241.1,113.9,2242.6,113z"/>
<path class="st0" d="M2689.9,292.4c-0.2,59.2,0,122.6,0,183.5c0,39,1.1,79.5-12.1,105.1c-9.8,19-23,22.6-51.8,22.6
	c-8.3,0-18.4,0.9-23.6-2.5c-10.4-6.8-10.1-19.3-10.1-36.7c0-19.8,0-39.5,0-59.3c0-94.8,0-189.7,0-284.5c0-23,0-45.9,0-68.9
	c0-17.8,0.1-32.6,12.6-37.7c6.4-2.6,21.7-1,30.2-1c9.9,0,19.8,0,29.7,0c4.4,0.2,8.7,0.3,13.1,0.5c7,2.3,9.8,8.8,13.6,14.6
	c9,13.7,18.1,27.5,26.1,42.2c1.4,2.7,4.4,5.5,6,8c2,3,2.6,6,4.5,9c5.6,8.5,10.9,16.9,16.1,26.1c0.4,0.8,2,1.7,2.5,2.5
	c2.8,4.5,4.7,9,7.5,13.6c1.6,2.6,4.5,5.4,6,8c9.2,16.3,19,32,29.2,47.2c4.3,6.4,7.2,12.9,11.1,19.6c1.5,2.6,4.4,5.5,6,8
	c1.9,2.9,2.6,6.1,4.5,9c8.4,12.6,16.9,26,25.1,38.7c0.3,1.2,0.7,2.3,1,3.5c9.4,14.7,19.1,30.1,28.7,44.7c2.3,3.6,5.8,13.7,9.6,15.1
	c0-0.2,0-0.3,0-0.5c1.8-2.3,0.5-14.1,0.5-19.1c0-17.4,0-34.9,0-52.3c0-55.3,0-110.6,0-165.9c0-17.6-2.9-55.3,4-65.3
	c7.8-11.4,41.5-7.5,60.8-7.5c10.3,0,18.7,0,24.6,4c8.3,5.7,7.5,19.5,7.5,33.7c0,26.5,0,52.9,0,79.4c0,92.5,0,185,0,277.5
	c0,35.8,4.8,82-19.1,94c-2.3,1.2-6.7,1.5-9,2c-5.4,0-10.7,0-16.1,0c-11.6,0-39.5,1.9-46.7-2c-8.2-4.5-10.9-14.4-16.1-22.1
	c-5.7-8.5-11-17.2-16.1-26.6c-2.5-4.7-7-9.4-9.6-14.1c-1.6-3-2.1-5.6-4-8.5c-4.8-7.5-10.2-15.6-15.1-23.1c-3.2-5-4.9-10.1-8-15.1
	c-3.9-6.1-9.1-12.7-12.6-19.1c-1.7-3.1-2.1-5.6-4-8.5c-9-14-18-28.2-26.1-43.2c-2.5-4.7-7-9.4-9.6-14.1
	c-5.6-10.4-11.5-19.7-17.1-30.2c-2.5-4.7-7-9.4-9.6-14.1c-10.1-18.7-21.2-36.8-32.7-54.3C2698.9,304.5,2695.2,292.8,2689.9,292.4z"
	/>
<path class="st1" d="M1834.9,183.9c27.5,0,55,0,82.4,0c7.7,0,27.6-1.9,32.7,1c5.7,3.2,15.8,14.2,13.1,25.1
	c-2.3,9.2-6.5,16.3-14.6,19.6c-4.8,1.9-23,0.5-29.7,0.5c-20.6,0-41.2,0-61.8,0c-11.5,0-23.2,0.8-30.2-3.5
	c-9.6-5.9-10.6-24.3-4.5-34.7C1825,187.5,1830.6,186.7,1834.9,183.9z"/>
<path class="st1" d="M1836.9,254.7c27.1,0,54.3,0,81.4,0c10.9,0,27.2-2,34.2,2.5c4.5,2.9,12.8,14.5,10.6,23.6
	c-1.8,7.2-4.7,14-10.1,17.6c-5.9,3.9-16.5,3-26.1,3c-18.8,0-37.5,0-56.3,0c-13.1,0-32.7,2.4-41.7-2.5c-10.6-5.8-14.2-24.8-6-36.2
	c1.5-2.1,5.5-5.6,8-6.5C1833.1,255.5,1835.3,255.9,1836.9,254.7z"/>
<path class="st1" d="M1664,329.6c26.8,0,53.6,0,80.4,0c12.4,0,27.7-1.5,35.2,3.5c6.1,4.1,12.9,18,8.5,29.2
	c-1.6,4.2-6.7,10.6-10.6,12.6c-6.1,3-18.2,1.5-26.6,1.5c-20.1,0-40.2,0-60.3,0c-10.9,0-28.8,2.3-35.7-2.5c-8.2-5.7-14.2-23-6.5-34.2
	c2.8-4,6.7-7.1,11.6-9C1661.4,330.1,1663,330.3,1664,329.6z"/>
<path class="st1" d="M2010.9,329.6c26.8,0,53.6,0,80.4,0c11.9,0,27.7-1.7,35.2,3c5.3,3.3,13.5,14.8,10.6,26.1
	c-1.6,6.1-6.7,13.7-12.1,16.1c-6.8,3.1-17.4,1.5-27.1,1.5c-18.9,0-37.9,0-56.8,0c-10.1,0-32,2-38.2-2c-9.1-5.8-15.3-22.6-7.5-34.7
	c1.5-2.4,5.5-6.4,8-7.5C2005.9,331,2008.6,331.1,2010.9,329.6z"/>
<path class="st1" d="M1491.1,404.5c26.8,0,53.6,0,80.4,0c13.2,0,28.4-1.4,36.2,4c4.7,3.2,10.8,16.1,8,25.1
	c-2.2,7.1-7.6,14.8-14.6,17.1c-8.5,0.2-17.1,0.3-25.6,0.5c-18.4,0-36.9,0-55.3,0c-14.6,0-32.3,1.7-40.7-4.5
	c-8.4-6.2-10.6-23.3-4-33.2c2.1-3.2,7.1-7.4,11.1-8.5C1488.2,404.6,1490,405.2,1491.1,404.5z"/>
<path class="st1" d="M1665,404.5c27.6,0,55.3,0,82.9,0c12.2,0,27.4-1.5,33.7,4.5c5.1,4.9,10.5,17.2,6.5,27.6
	c-2.1,5.6-7.3,11-12.6,13.6c-3.9,1.9-18.3,1-25.1,1c-19.6,0-39.2,0-58.8,0c-13.6,0-30.1,1.5-38.2-4c-9.6-6.5-10.7-25.4-3.5-35.2
	c1.8-2.4,6.5-6.2,9.6-7C1661.4,404.5,1663.7,405.3,1665,404.5z"/>
<path class="st1" d="M2011.4,404.5c27,0,54,0,80.9,0c13.1,0,28.5-1.4,36.2,4c4.5,3.1,11.2,15.1,8.5,25.1c-1.8,7-8.4,14.9-15.1,17.1
	c-8.5,0.2-17.1,0.3-25.6,0.5c-18.4,0-36.9,0-55.3,0c-14.2,0-31.4,2.1-39.7-3.5c-8.3-5.6-13-22.9-6-33.7c1.9-3,6.7-7.1,10.1-8.5
	C2007,404.8,2009.9,405.4,2011.4,404.5z"/>
<path class="st1" d="M1834.4,408c27.8,0,55.6,0,83.4,0c8.3,0,27.5-1.8,32.7,1.5c8.8,5.6,15.7,18.9,10.1,32.7
	c-6.4,15.7-27.3,12.1-48.8,12.1c-18.3,0-36.5,0-54.8,0c-18.7,0-28.9,2-35.7-10.6c-0.6-1.1-2-2.3-2.5-3.5c-1.4-3.4-1.5-15.2,0-18.6
	c3.2-6.9,7.9-8.4,12.6-13.1C1832.8,408.6,1833.7,408.5,1834.4,408z"/>
<path class="st1" d="M1486.1,479.9c29,0,58,0,87,0c9.2,0,29.1-1.9,35.2,1.5c6.9,3.9,8,12.6,8,23.6c0,2.5,0,5,0,7.5
	c-1.6,5.6-5.8,11.5-11.1,13.6c-5.7,2.2-20.5,0.5-27.6,0.5c-21.3,0-42.6,0-63.8,0c-12.4,0-28.9,1.8-36.2-3.5
	c-0.8-0.6-5.2-6.6-5.5-7.5c-1.2-2.9-1.3-22.3,0-25.1c0.8-1.8,5.9-8.1,7.5-9C1481.5,480.4,1484.3,481,1486.1,479.9z"/>
<path class="st1" d="M1659,479.9c29.2,0,58.3,0,87.5,0c8.2,0,28.8-1.8,33.7,1.5c11,3.7,13.1,34.8,3.5,41.7c-8.3,6-33,3.5-47.2,3.5
	c-19.4,0-38.9,0-58.3,0c-9.2,0-20.5,1.1-26.1-2.5c-6.8-4.4-10.2-20.9-6.5-32.2c1.7-5.4,5.1-7.5,8.5-11.1
	C1655.9,480.9,1657.9,480.7,1659,479.9z"/>
<path class="st1" d="M2005.8,479.9c29.2,0,58.3,0,87.5,0c9.3,0,29.5-1.9,35.7,1.5c7.6,4.2,8,12.2,8,24.1c0,2.8,0,5.7,0,8.5
	c-4.5,15.9-23.4,12.6-43.2,12.6c-22.1,0-44.2,0-66.3,0c-11.1,0-23.3,1.1-29.7-3.5c-2-1.5-4.6-6.2-5.5-8.5c-1.2-3.2-1.2-19.4,0-22.6
	c2-5.4,5.3-7.5,9-11.1C2002.9,480.9,2004.8,480.7,2005.8,479.9z"/>
<path class="st0" d="M2433.1,505.6c5.7,0.2,11.4,0.3,17.1,0.5c5.8,1.5,14.1,3.8,19.1,6.5c20.1,11,41.3,43.5,29.2,75.4
	c-1.1,2.9-3.9,6.5-5.5,9c-10.8,17.4-21.1,26.6-44.2,31.7c-9.6,2.1-22.2-1.1-28.1-3c-14.7-4.9-26.1-13.3-33.7-25.1
	c-0.7-1.8-1.3-3.7-2-5.5c-1.5-2.4-4-6.2-5-9c-3.2-9.3-2.8-22.4-0.5-31.7c0.7-2.6-0.1-4.9,1-7c8.3-17,18.6-29.4,35.7-37.7
	c2.7-0.5,5.4-1,8-1.5c1.1-0.4,3.2-1.7,4.5-2C2430.2,505.6,2432,506.2,2433.1,505.6z"/>
<path class="st1" d="M1484.1,556.3c29.5,0,59,0,88.5,0c7.5,0,30.8-1.4,35.2,1c7.1,3.9,8.5,12.3,8.5,23.6c0,2.5,0,5,0,7.5
	c-4.4,17.5-18.8,14.1-39.7,14.1c-31.5,0-63,0-94.5,0c-3.1-3.9-8.1-6-10.1-11.1c-1-2.5-0.5-6.4-0.5-9.6c0-12.3,0.7-20.3,8.5-24.6
	C1481.3,556.7,1483,557,1484.1,556.3z"/>
<path class="st1" d="M1657,556.3c28.5,0,57,0,85.4,0c8.7,0,17.4,0,26.1,0c3.7,0.2,7.4,0.3,11.1,0.5c8.6,3.1,11.9,18,9,30.7
	c-0.2,1.8-0.3,3.7-0.5,5.5c-1.9,4.4-6.5,6.3-9.6,9.6c-29.8,0-59.7,0-89.5,0c-8,0-16.1,0-24.1,0c-2.8,0-7.7,0.6-9.6-0.5
	c-10.8-3.5-14.4-24.1-9-37.2c1.5-3.6,5.5-5.5,8-8C1655.8,556.8,1656.3,556.8,1657,556.3z"/>
<path class="st1" d="M2003.8,556.3c29.7,0,59.3,0,89,0c7.5,0,31.2-1.5,35.7,1c7.7,4.2,8.5,11.9,8.5,24.1c0,3.2,0.7,8.2-0.5,10.6
	c-2.4,4.5-6.7,7-10.1,10.6c-30.2,0-60.3,0-90.5,0c-8,0-16.1,0-24.1,0c-2.8,0-7.7,0.6-9.6-0.5c-8.8-3-10.6-12.4-10.6-24.6
	c0-3.2-0.5-7.1,0.5-9.6c2-5,5.7-7.6,9-11.1C2002.6,556.8,2003.2,556.8,2003.8,556.3z"/>
</svg>
